<svg width="42" height="43" viewBox="0 0 42 43" fill="none" xmlns="http://www.w3.org/2000/svg">
<circle cx="21" cy="21.6758" r="21" fill="white"/>
<path d="M30.407 27.3476C29.6817 26.5784 27.925 25.4559 27.0727 25.0035C25.9629 24.4151 25.8715 24.367 24.9991 25.0492C24.4172 25.5044 24.0304 25.9111 23.3494 25.7583C22.6684 25.6054 21.1885 24.7434 19.8928 23.3838C18.597 22.0243 17.7305 20.4215 17.5848 19.7071C17.4391 18.9927 17.8319 18.5903 18.2604 17.9764C18.8642 17.111 18.8185 16.9668 18.3024 15.7986C17.9 14.89 16.8024 13.0583 16.0689 12.2987C15.2842 11.4829 15.2842 11.6271 14.7786 11.8483C14.367 12.0306 13.9721 12.2522 13.5989 12.5103C12.8681 13.0213 12.4625 13.4458 12.1788 14.0838C11.8952 14.7217 11.7678 16.2173 13.2326 19.0182C14.6973 21.819 15.725 23.2512 17.852 25.4838C19.9791 27.7164 21.6147 28.9168 24.0057 30.3283C26.9636 32.0719 28.0981 31.732 28.7061 31.434C29.314 31.1359 29.7191 30.7129 30.2055 29.9437C30.4514 29.5515 30.6624 29.1363 30.8358 28.7033C31.0464 28.1731 31.1834 28.1731 30.407 27.3476Z" stroke="#1C2752" stroke-width="1.5" stroke-miterlimit="10"/>
</svg>
